<svg xmlns="http://www.w3.org/2000/svg" viewBox="0 0 44 44"><path d="M21.9.6C9.8.6 0 10.5 0 22.6c0 9.6 6.3 17.9 15 20.8 1.1.2 1.5-.4 1.5-1.1v-3.8c-6.1 1.3-7.4-3-7.4-3-1-2.5-2.5-3.2-2.5-3.2-2-1.4.2-1.3.2-1.3 2.2.2 3.3 2.3 3.3 2.3 1.9 3.3 5.2 2.4 6.4 1.8.2-1.4.8-2.4 1.4-2.9-4.9-.5-10-2.5-10-10.9 0-2.4.9-4.4 2.3-5.9-.3-.5-1-2.8.2-5.8 0 0 1.8-.6 6 2.3 1.8-.5 3.6-.7 5.5-.7 1.8 0 3.8.3 5.5.7 4.2-2.8 6-2.3 6-2.3 1.2 3 .4 5.3.2 5.8 1.4 1.5 2.3 3.5 2.3 5.9 0 8.4-5.1 10.3-10 10.8.8.7 1.5 2 1.5 4v6c0 .6.4 1.2 1.5 1.1 8.7-2.9 15-11.1 15-20.8C43.8 10.5 34 .6 21.9.6z" fill="#191717"/></svg>
